<svg width="19" height="18" viewBox="0 0 19 18" fill="none" xmlns="http://www.w3.org/2000/svg">
<path d="M6.40405 15.75C7.02537 15.75 7.52905 15.2463 7.52905 14.625C7.52905 14.0037 7.02537 13.5 6.40405 13.5C5.78273 13.5 5.27905 14.0037 5.27905 14.625C5.27905 15.2463 5.78273 15.75 6.40405 15.75Z" fill="white"/>
<path d="M14.2791 15.75C14.9004 15.75 15.4041 15.2463 15.4041 14.625C15.4041 14.0037 14.9004 13.5 14.2791 13.5C13.6577 13.5 13.1541 14.0037 13.1541 14.625C13.1541 15.2463 13.6577 15.75 14.2791 15.75Z" fill="white"/>
<path d="M16.2759 4.24617C16.1969 4.14951 16.0973 4.07166 15.9845 4.01827C15.8716 3.96487 15.7483 3.93729 15.6234 3.9375H4.92362L4.70812 2.71477C4.68514 2.58452 4.617 2.46654 4.51567 2.38154C4.41434 2.29655 4.28631 2.24997 4.15405 2.25H1.90405C1.75487 2.25 1.61179 2.30926 1.50631 2.41475C1.40082 2.52024 1.34155 2.66332 1.34155 2.8125C1.34155 2.96168 1.40082 3.10476 1.50631 3.21025C1.61179 3.31574 1.75487 3.375 1.90405 3.375H3.68226L5.28749 12.4727C5.31047 12.603 5.37861 12.721 5.47993 12.806C5.58126 12.891 5.7093 12.9375 5.84155 12.9375H14.8416C14.9907 12.9375 15.1338 12.8782 15.2393 12.7727C15.3448 12.6673 15.4041 12.5242 15.4041 12.375C15.4041 12.2258 15.3448 12.0827 15.2393 11.9773C15.1338 11.8718 14.9907 11.8125 14.8416 11.8125H6.31335L6.11507 10.6875H14.6109C14.806 10.6873 14.995 10.6196 15.1459 10.496C15.2969 10.3725 15.4005 10.2005 15.4392 10.0093L16.4517 4.94684C16.4761 4.82432 16.473 4.69791 16.4426 4.57674C16.4122 4.45557 16.3553 4.34266 16.2759 4.24617Z" fill="white"/>
</svg>
