<svg width="24" height="25" viewBox="0 0 24 25" fill="none" xmlns="http://www.w3.org/2000/svg">
<path d="M18.4687 23C18.3109 23.0006 18.1568 22.9514 18.0286 22.8594L12 18.4887L5.97139 22.8594C5.84259 22.9528 5.68742 23.0028 5.52831 23.0022C5.36921 23.0017 5.21441 22.9505 5.08629 22.8561C4.95818 22.7618 4.86339 22.6291 4.81563 22.4774C4.76787 22.3256 4.76961 22.1626 4.82061 22.0119L7.17185 15.0477L1.07811 10.8687C0.946112 10.7783 0.846491 10.6481 0.793797 10.497C0.741103 10.3459 0.7381 10.182 0.785225 10.0291C0.83235 9.87619 0.927135 9.74237 1.05573 9.64718C1.18432 9.55199 1.33999 9.50042 1.49998 9.5H9.01779L11.2865 2.51797C11.3354 2.36723 11.4308 2.23584 11.5589 2.14266C11.6871 2.04947 11.8415 1.99928 12 1.99928C12.1584 1.99928 12.3128 2.04947 12.441 2.14266C12.5692 2.23584 12.6645 2.36723 12.7134 2.51797L14.9822 9.50234H22.5C22.6602 9.50226 22.8162 9.55348 22.9452 9.64848C23.0741 9.74349 23.1693 9.8773 23.2167 10.0303C23.2641 10.1833 23.2613 10.3475 23.2087 10.4988C23.156 10.6501 23.0563 10.7806 22.9242 10.8711L16.8281 15.0477L19.1779 22.01C19.216 22.1227 19.2267 22.2429 19.2092 22.3606C19.1916 22.4782 19.1464 22.59 19.0771 22.6868C19.0078 22.7835 18.9165 22.8623 18.8107 22.9168C18.7049 22.9713 18.5877 22.9998 18.4687 23Z" fill="#12805D"/>
</svg>
