<svg width="24" height="25" fill="none" xmlns="http://www.w3.org/2000/svg"><path d="M21.312 8.44A1.494 1.494 0 0 0 20.25 8h-3v-.75a5.25 5.25 0 1 0-10.5 0V8h-3a1.5 1.5 0 0 0-1.5 1.5v10.125C2.25 21.453 3.797 23 5.625 23h12.75c.884 0 1.734-.346 2.366-.963a3.256 3.256 0 0 0 1.009-2.353V9.5a1.49 1.49 0 0 0-.438-1.06ZM15 16.25h-2.25v2.25a.75.75 0 1 1-1.5 0v-2.25H9a.75.75 0 1 1 0-1.5h2.25V12.5a.75.75 0 1 1 1.5 0v2.25H15a.75.75 0 1 1 0 1.5ZM15.75 8h-7.5v-.75a3.75 3.75 0 0 1 7.5 0V8Z" fill="#fff"/></svg>